<svg width="92" height="17" viewBox="0 0 92 17" fill="none" xmlns="http://www.w3.org/2000/svg">
<g opacity="0.6" clip-path="url(#clip0_227_207)">
<path opacity="0.5" d="M0.245678 0.631836C1.12192 0.694336 1.22907 0.915336 1.22907 1.19634V15.8038C1.22907 16.0848 1.12136 16.3028 0.245117 16.3653V16.7453H7.47385V16.3653C6.59648 16.3028 6.49326 16.0848 6.49326 15.8038V1.19634C6.49326 0.915336 6.59648 0.694336 7.47385 0.631836V0.255336H0.245678V0.631836ZM24.1943 0.631836C24.6492 0.664336 24.9297 0.819836 24.9297 1.19634V9.56484C22.4755 7.15034 16.4085 1.38584 16.4085 1.03834C16.4085 0.853336 16.583 0.664336 17.3891 0.631836V0.255336H8.93519V0.631836C9.81256 0.694336 9.91634 0.915336 9.91634 1.19634V15.8038C9.91634 16.0848 9.81256 16.3028 8.93519 16.3653V16.7453H15.6024V16.3653C14.7228 16.3028 14.6184 16.0848 14.6184 15.8038V5.96034C23.8773 15.2093 24.7564 15.6153 24.7564 16.0228C24.7564 16.2418 24.5791 16.3658 23.9469 16.3658V16.7458H30.613V16.3658C29.7362 16.3033 29.6329 16.0853 29.6329 15.8043V1.19634C29.6329 0.915336 29.7362 0.694336 30.613 0.631836V0.255336H24.1943V0.631836ZM52.7693 8.50034C52.7693 3.01384 47.7906 0.0693359 41.8257 0.0693359C35.8615 0.0693359 30.8839 3.01384 30.8839 8.50034C30.8839 13.9843 35.8615 16.9308 41.8257 16.9308C47.7906 16.9308 52.7693 13.9848 52.7693 8.50034ZM41.8257 13.1068C38.778 13.1068 36.0724 11.4478 36.0724 8.50084C36.0724 5.55384 38.778 3.89284 41.8257 3.89284C44.8786 3.89284 47.578 5.55434 47.578 8.50084C47.578 11.4478 44.8786 13.1068 41.8257 13.1068ZM90.7714 15.4278C88.5965 10.6633 84.2837 1.28934 84.2837 1.03834C84.2837 0.727836 84.53 0.664336 84.9176 0.631836V0.255336H75.7569V0.631836C76.075 0.664336 76.4598 0.727836 76.4598 0.945336C76.4598 1.12034 71.388 12.9368 70.3828 15.2698L64.0897 8.15334L70.5449 1.00834C70.7199 0.819836 71.0363 0.664336 71.4211 0.631836V0.255336H63.3896V0.631836C63.6713 0.631836 64.1262 0.694336 64.1262 1.03834C64.1262 1.32184 61.4234 3.98734 60.8989 4.61284C60.5472 4.17634 57.6705 1.25684 57.6705 1.03834C57.6705 0.727836 57.9521 0.664336 58.5136 0.631836V0.255336H50.306V0.631836C50.5136 0.631836 50.7935 0.694336 51.1088 1.03834L57.634 8.37484L50.619 15.8343C50.2668 16.2083 50.0581 16.3653 49.8135 16.3653V16.7453H57.9134V16.3653C57.6329 16.3653 57.0731 16.3653 57.0731 16.0223C57.0731 15.5858 60.3357 12.5438 60.8243 11.9158C62.2991 13.6403 64.299 15.8658 64.299 16.2078C64.299 16.3648 63.9815 16.3648 63.6337 16.3648V16.7448H75.5112V16.3648C75.0204 16.3648 74.8796 16.2408 74.8796 16.0543C74.8796 15.8658 75.0933 15.4598 76.0026 13.1678H84.3146C84.4554 13.5768 85.5089 15.8658 85.5089 15.9903C85.5089 16.1808 85.3345 16.3333 84.843 16.3653V16.7453H91.7531V16.3653C91.3335 16.3653 91.1237 16.1808 90.7714 15.4278ZM76.8806 10.6633L80.0024 3.20184L83.4058 10.6633H76.8806Z" fill="#282B22"/>
</g>
<defs>
<clipPath id="clip0_227_207">
<rect width="92" height="17" fill="white"/>
</clipPath>
</defs>
</svg>
