<svg width="100" height="100" viewBox="0 0 100 100" fill="none" xmlns="http://www.w3.org/2000/svg">
<g filter="url(#filter0_d_227_77)">
<circle cx="50" cy="35" r="30" transform="rotate(-180 50 35)" fill="white"/>
</g>
<path d="M39.2929 34.2929C38.9024 34.6834 38.9024 35.3166 39.2929 35.7071L45.6569 42.0711C46.0474 42.4616 46.6805 42.4616 47.0711 42.0711C47.4616 41.6805 47.4616 41.0474 47.0711 40.6569L41.4142 35L47.0711 29.3431C47.4616 28.9526 47.4616 28.3195 47.0711 27.9289C46.6805 27.5384 46.0474 27.5384 45.6569 27.9289L39.2929 34.2929ZM60 34L40 34L40 36L60 36L60 34Z" fill="#282B22"/>
<defs>
<filter id="filter0_d_227_77" x="0" y="0" width="100" height="100" filterUnits="userSpaceOnUse" color-interpolation-filters="sRGB">
<feFlood flood-opacity="0" result="BackgroundImageFix"/>
<feColorMatrix in="SourceAlpha" type="matrix" values="0 0 0 0 0 0 0 0 0 0 0 0 0 0 0 0 0 0 127 0" result="hardAlpha"/>
<feOffset dy="15"/>
<feGaussianBlur stdDeviation="10"/>
<feComposite in2="hardAlpha" operator="out"/>
<feColorMatrix type="matrix" values="0 0 0 0 0 0 0 0 0 0 0 0 0 0 0 0 0 0 0.05 0"/>
<feBlend mode="normal" in2="BackgroundImageFix" result="effect1_dropShadow_227_77"/>
<feBlend mode="normal" in="SourceGraphic" in2="effect1_dropShadow_227_77" result="shape"/>
</filter>
</defs>
</svg>
